<svg width="177" height="40" viewBox="0 0 177 40" fill="none" xmlns="http://www.w3.org/2000/svg">
<path d="M71.8849 17.3622H69.2287C69.1529 16.9266 69.0133 16.5407 68.8097 16.2045C68.6061 15.8636 68.3527 15.5748 68.0497 15.3381C67.7467 15.1013 67.401 14.9238 67.0128 14.8054C66.6293 14.6823 66.215 14.6207 65.7699 14.6207C64.9792 14.6207 64.2784 14.8196 63.6676 15.2173C63.0568 15.6103 62.5786 16.188 62.233 16.9503C61.8873 17.7079 61.7145 18.6335 61.7145 19.7273C61.7145 20.84 61.8873 21.7775 62.233 22.5398C62.5833 23.2973 63.0616 23.8703 63.6676 24.2585C64.2784 24.642 64.9768 24.8338 65.7628 24.8338C66.1984 24.8338 66.6056 24.777 66.9844 24.6634C67.3679 24.545 67.7112 24.3722 68.0142 24.1449C68.322 23.9176 68.58 23.6383 68.7884 23.3068C69.0014 22.9754 69.1482 22.5966 69.2287 22.1705L71.8849 22.1847C71.7855 22.8759 71.5701 23.5246 71.2386 24.1307C70.9119 24.7367 70.4834 25.2718 69.9531 25.7358C69.4228 26.1951 68.8026 26.5549 68.0923 26.8153C67.3821 27.071 66.5938 27.1989 65.7273 27.1989C64.4489 27.1989 63.3078 26.9029 62.304 26.3111C61.3002 25.7192 60.5095 24.8646 59.9318 23.7472C59.3542 22.6297 59.0653 21.2898 59.0653 19.7273C59.0653 18.16 59.3565 16.8201 59.9389 15.7074C60.5213 14.59 61.3144 13.7353 62.3182 13.1435C63.322 12.5516 64.4583 12.2557 65.7273 12.2557C66.5369 12.2557 67.2898 12.3693 67.9858 12.5966C68.6818 12.8239 69.3021 13.1577 69.8466 13.598C70.3911 14.0336 70.8385 14.5687 71.1889 15.2031C71.544 15.8329 71.776 16.5526 71.8849 17.3622ZM74.1843 27V16.0909H76.7553V20.4943H77.6928L80.9741 16.0909H84.0707L80.0295 21.446L84.1133 27H81.0025L78.0124 22.8878H76.7553V27H74.1843ZM85.571 31.0909V16.0909H88.0994V17.8949H88.2486C88.3812 17.6297 88.5682 17.348 88.8097 17.0497C89.0511 16.7467 89.3778 16.4886 89.7898 16.2756C90.2017 16.0578 90.7273 15.9489 91.3665 15.9489C92.2093 15.9489 92.9692 16.1643 93.6463 16.5952C94.3281 17.0213 94.8679 17.6534 95.2656 18.4915C95.6681 19.3248 95.8693 20.3475 95.8693 21.5597C95.8693 22.7576 95.6728 23.7756 95.2798 24.6136C94.8868 25.4517 94.3518 26.0909 93.6747 26.5312C92.9976 26.9716 92.2306 27.1918 91.3736 27.1918C90.7486 27.1918 90.2301 27.0876 89.8182 26.8793C89.4063 26.6709 89.0748 26.42 88.8239 26.1264C88.5777 25.8281 88.3859 25.5464 88.2486 25.2812H88.142V31.0909H85.571ZM88.0923 21.5455C88.0923 22.2509 88.1918 22.8688 88.3906 23.3991C88.5942 23.9295 88.8854 24.3437 89.2642 24.642C89.6477 24.9356 90.1117 25.0824 90.6562 25.0824C91.2244 25.0824 91.7003 24.9309 92.0838 24.6278C92.4673 24.3201 92.7562 23.901 92.9503 23.3707C93.1491 22.8357 93.2486 22.2273 93.2486 21.5455C93.2486 20.8684 93.1515 20.267 92.9574 19.7415C92.7633 19.2159 92.4744 18.804 92.0909 18.5057C91.7074 18.2074 91.2292 18.0582 90.6562 18.0582C90.107 18.0582 89.6406 18.2027 89.2571 18.4915C88.8736 18.7803 88.5824 19.1851 88.3835 19.706C88.1894 20.2268 88.0923 20.84 88.0923 21.5455ZM100.55 23.5199L104.918 16.0909H107.56V27H105.074V19.5639L100.72 27H98.071V16.0909H100.55V23.5199ZM117.693 20.4801V22.5895H111.883V20.4801H117.693ZM112.679 16.0909V27H110.2V16.0909H112.679ZM119.376 16.0909V27H116.904V16.0909H119.376ZM121.977 16.0909H124.456V24.8835H127.886V16.0909H130.365V24.8835H133.795V16.0909H136.274V27H121.977V16.0909ZM143.63 27.2131C142.565 27.2131 141.642 26.9787 140.86 26.5099C140.079 26.0412 139.473 25.3854 139.042 24.5426C138.616 23.6998 138.403 22.715 138.403 21.5881C138.403 20.4612 138.616 19.474 139.042 18.6264C139.473 17.7789 140.079 17.1207 140.86 16.652C141.642 16.1832 142.565 15.9489 143.63 15.9489C144.696 15.9489 145.619 16.1832 146.4 16.652C147.181 17.1207 147.785 17.7789 148.211 18.6264C148.642 19.474 148.858 20.4612 148.858 21.5881C148.858 22.715 148.642 23.6998 148.211 24.5426C147.785 25.3854 147.181 26.0412 146.4 26.5099C145.619 26.9787 144.696 27.2131 143.63 27.2131ZM143.645 25.1534C144.222 25.1534 144.705 24.9948 145.093 24.6776C145.482 24.3556 145.77 23.9247 145.96 23.3849C146.154 22.8452 146.251 22.2438 146.251 21.581C146.251 20.9134 146.154 20.3097 145.96 19.7699C145.77 19.2254 145.482 18.7921 145.093 18.4702C144.705 18.1482 144.222 17.9872 143.645 17.9872C143.053 17.9872 142.56 18.1482 142.167 18.4702C141.779 18.7921 141.488 19.2254 141.294 19.7699C141.104 20.3097 141.01 20.9134 141.01 21.581C141.01 22.2438 141.104 22.8452 141.294 23.3849C141.488 23.9247 141.779 24.3556 142.167 24.6776C142.56 24.9948 143.053 25.1534 143.645 25.1534ZM149.838 18.2003V16.0909H159.383V18.2003H155.853V27H153.368V18.2003H149.838ZM163.17 19.642H166.388C167.78 19.642 168.857 19.9806 169.619 20.6577C170.382 21.3348 170.765 22.2225 170.77 23.321C170.765 24.036 170.59 24.6705 170.244 25.2244C169.903 25.7784 169.406 26.214 168.753 26.5312C168.104 26.8438 167.316 27 166.388 27H161.43V16.0909H163.909V24.8906H166.388C166.946 24.8906 167.406 24.7486 167.766 24.4645C168.125 24.1757 168.305 23.8063 168.305 23.3565C168.305 22.883 168.125 22.4972 167.766 22.1989C167.406 21.9006 166.946 21.7514 166.388 21.7514H163.17V19.642ZM172.126 27V16.0909H174.697V27H172.126Z" fill="#0B061B"/>
<path d="M2 16V10C2 6.22876 2 4.34315 3.17157 3.17157C4.34315 2 6.22876 2 10 2H16" stroke="#369FFF" stroke-width="4" stroke-linecap="round"/>
<path d="M38 24L38 30C38 33.7712 38 35.6569 36.8284 36.8284C35.6569 38 33.7712 38 30 38L24 38" stroke="#369FFF" stroke-width="4" stroke-linecap="round"/>
<path d="M24 2L30 2C33.7712 2 35.6569 2 36.8284 3.17157C38 4.34315 38 6.22876 38 10L38 16" stroke="#369FFF" stroke-width="4" stroke-linecap="round"/>
<path d="M16 38L10 38C6.22876 38 4.34315 38 3.17157 36.8284C2 35.6569 2 33.7712 2 30L2 24" stroke="#369FFF" stroke-width="4" stroke-linecap="round"/>
</svg>
